<?xml version="1.0" encoding="UTF-8"?>
<svg xmlns="http://www.w3.org/2000/svg" version="1.1" width="560" height="560" viewBox="0 0 560 560">
  <circle cx="280" cy="280" r="260" stroke="#f7f3e8" stroke-width="12" fill="none"/>
  <line x1="270.6" y1="126.6" x2="229.8" y2="169.8" stroke="#f7f3e8" stroke-width="8" stroke-linecap="round"/>
  <line x1="229.8" y1="169.8" x2="173.4" y2="174.6" stroke="#f7f3e8" stroke-width="8" stroke-linecap="round"/>
  <line x1="173.4" y1="174.6" x2="157.8" y2="250.2" stroke="#f7f3e8" stroke-width="8" stroke-linecap="round"/>
  <line x1="157.8" y1="250.2" x2="228.6" y2="269.4" stroke="#f7f3e8" stroke-width="8" stroke-linecap="round"/>
  <line x1="228.6" y1="269.4" x2="271.8" y2="312.6" stroke="#f7f3e8" stroke-width="8" stroke-linecap="round"/>
  <line x1="271.8" y1="312.6" x2="317.4" y2="337.8" stroke="#f7f3e8" stroke-width="8" stroke-linecap="round"/>
  <line x1="271.8" y1="312.6" x2="294.6" y2="383.4" stroke="#f7f3e8" stroke-width="8" stroke-linecap="round"/>
  <line x1="317.4" y1="337.8" x2="375.0" y2="339.0" stroke="#f7f3e8" stroke-width="8" stroke-linecap="round"/>
  <line x1="375.0" y1="339.0" x2="373.8" y2="406.2" stroke="#f7f3e8" stroke-width="8" stroke-linecap="round"/>
  <line x1="373.8" y1="406.2" x2="331.8" y2="421.8" stroke="#f7f3e8" stroke-width="8" stroke-linecap="round"/>
  <line x1="331.8" y1="421.8" x2="294.6" y2="383.4" stroke="#f7f3e8" stroke-width="8" stroke-linecap="round"/>
  <line x1="294.6" y1="383.4" x2="317.4" y2="337.8" stroke="#f7f3e8" stroke-width="8" stroke-linecap="round"/>
  <circle cx="270.6" cy="126.6" r="17" fill="none" stroke="#f7f3e8" stroke-width="8"/>
  <circle cx="229.8" cy="169.8" r="17" fill="none" stroke="#f7f3e8" stroke-width="8"/>
  <circle cx="173.4" cy="174.6" r="17" fill="none" stroke="#f7f3e8" stroke-width="8"/>
  <circle cx="157.8" cy="250.2" r="17" fill="none" stroke="#f7f3e8" stroke-width="8"/>
  <circle cx="228.6" cy="269.4" r="17" fill="none" stroke="#f7f3e8" stroke-width="8"/>
  <circle cx="271.8" cy="312.6" r="17" fill="none" stroke="#f7f3e8" stroke-width="8"/>
  <circle cx="317.4" cy="337.8" r="17" fill="none" stroke="#f7f3e8" stroke-width="8"/>
  <circle cx="375.0" cy="339.0" r="17" fill="none" stroke="#f7f3e8" stroke-width="8"/>
  <circle cx="373.8" cy="406.2" r="17" fill="none" stroke="#f7f3e8" stroke-width="8"/>
  <circle cx="331.8" cy="421.8" r="17" fill="none" stroke="#f7f3e8" stroke-width="8"/>
  <circle cx="294.6" cy="383.4" r="17" fill="none" stroke="#f7f3e8" stroke-width="8"/>
  <polygon points="188.5,358.4 176.5,370.4 188.5,382.4 200.5,370.4" fill="#f7f3e8"/>
  <polygon points="240.1,407.3 226.1,421.3 240.1,435.3 254.1,421.3" fill="#f7f3e8"/>
  <polygon points="342.0,265.7 328.0,279.7 342.0,293.7 356.0,279.7" fill="#f7f3e8"/>
  <circle cx="307.8" cy="211.8" r="13" fill="none" stroke="#f7f3e8" stroke-width="8"/>
  <rect x="325.5" y="126.5" width="10" height="10" fill="#f7f3e8"/>
  <rect x="313.5" y="138.5" width="10" height="10" fill="#f7f3e8"/>
  <rect x="337.5" y="138.5" width="10" height="10" fill="#f7f3e8"/>
  <rect x="325.5" y="150.5" width="10" height="10" fill="#f7f3e8"/>
  <rect x="342.5" y="109.5" width="10" height="10" fill="#f7f3e8"/>
  <rect x="330.5" y="121.5" width="10" height="10" fill="#f7f3e8"/>
  <rect x="354.5" y="121.5" width="10" height="10" fill="#f7f3e8"/>
  <rect x="342.5" y="133.5" width="10" height="10" fill="#f7f3e8"/>
  <rect x="359.5" y="126.5" width="10" height="10" fill="#f7f3e8"/>
  <rect x="347.5" y="138.5" width="10" height="10" fill="#f7f3e8"/>
  <rect x="371.5" y="138.5" width="10" height="10" fill="#f7f3e8"/>
  <rect x="359.5" y="150.5" width="10" height="10" fill="#f7f3e8"/>
  <rect x="342.5" y="143.5" width="10" height="10" fill="#f7f3e8"/>
  <rect x="330.5" y="155.5" width="10" height="10" fill="#f7f3e8"/>
  <rect x="354.5" y="155.5" width="10" height="10" fill="#f7f3e8"/>
  <rect x="342.5" y="167.5" width="10" height="10" fill="#f7f3e8"/>
  <rect x="388.0" y="251.5" width="10" height="10" fill="#f7f3e8"/>
  <rect x="376.0" y="263.5" width="10" height="10" fill="#f7f3e8"/>
  <rect x="400.0" y="263.5" width="10" height="10" fill="#f7f3e8"/>
  <rect x="388.0" y="275.5" width="10" height="10" fill="#f7f3e8"/>
  <rect x="405.0" y="234.5" width="10" height="10" fill="#f7f3e8"/>
  <rect x="393.0" y="246.5" width="10" height="10" fill="#f7f3e8"/>
  <rect x="417.0" y="246.5" width="10" height="10" fill="#f7f3e8"/>
  <rect x="405.0" y="258.5" width="10" height="10" fill="#f7f3e8"/>
  <rect x="422.0" y="251.5" width="10" height="10" fill="#f7f3e8"/>
  <rect x="410.0" y="263.5" width="10" height="10" fill="#f7f3e8"/>
  <rect x="434.0" y="263.5" width="10" height="10" fill="#f7f3e8"/>
  <rect x="422.0" y="275.5" width="10" height="10" fill="#f7f3e8"/>
  <rect x="405.0" y="268.5" width="10" height="10" fill="#f7f3e8"/>
  <rect x="393.0" y="280.5" width="10" height="10" fill="#f7f3e8"/>
  <rect x="417.0" y="280.5" width="10" height="10" fill="#f7f3e8"/>
  <rect x="405.0" y="292.5" width="10" height="10" fill="#f7f3e8"/>
  <rect x="116.0" y="393.0" width="10" height="10" fill="#f7f3e8"/>
  <rect x="104.0" y="405.0" width="10" height="10" fill="#f7f3e8"/>
  <rect x="128.0" y="405.0" width="10" height="10" fill="#f7f3e8"/>
  <rect x="116.0" y="417.0" width="10" height="10" fill="#f7f3e8"/>
  <rect x="133.0" y="376.0" width="10" height="10" fill="#f7f3e8"/>
  <rect x="121.0" y="388.0" width="10" height="10" fill="#f7f3e8"/>
  <rect x="145.0" y="388.0" width="10" height="10" fill="#f7f3e8"/>
  <rect x="133.0" y="400.0" width="10" height="10" fill="#f7f3e8"/>
  <rect x="150.0" y="393.0" width="10" height="10" fill="#f7f3e8"/>
  <rect x="138.0" y="405.0" width="10" height="10" fill="#f7f3e8"/>
  <rect x="162.0" y="405.0" width="10" height="10" fill="#f7f3e8"/>
  <rect x="150.0" y="417.0" width="10" height="10" fill="#f7f3e8"/>
  <rect x="133.0" y="410.0" width="10" height="10" fill="#f7f3e8"/>
  <rect x="121.0" y="422.0" width="10" height="10" fill="#f7f3e8"/>
  <rect x="145.0" y="422.0" width="10" height="10" fill="#f7f3e8"/>
  <rect x="133.0" y="434.0" width="10" height="10" fill="#f7f3e8"/>
  <rect x="405.0" y="155.0" width="10" height="10" fill="#f7f3e8"/>
  <rect x="393.0" y="167.0" width="10" height="10" fill="#f7f3e8"/>
  <rect x="417.0" y="167.0" width="10" height="10" fill="#f7f3e8"/>
  <rect x="405.0" y="179.0" width="10" height="10" fill="#f7f3e8"/>
  <rect x="173.0" y="297.0" width="10" height="10" fill="#f7f3e8"/>
  <rect x="161.0" y="309.0" width="10" height="10" fill="#f7f3e8"/>
  <rect x="185.0" y="309.0" width="10" height="10" fill="#f7f3e8"/>
  <rect x="173.0" y="321.0" width="10" height="10" fill="#f7f3e8"/>
  <rect x="238.0" y="171.0" width="10" height="10" fill="#f7f3e8"/>
  <rect x="226.0" y="183.0" width="10" height="10" fill="#f7f3e8"/>
  <rect x="250.0" y="183.0" width="10" height="10" fill="#f7f3e8"/>
  <rect x="238.0" y="195.0" width="10" height="10" fill="#f7f3e8"/>
</svg>