<svg xmlns="http://www.w3.org/2000/svg" viewBox="0 0 540 540" width="540" height="540"><defs></defs><g>
<g>
	<g transform="matrix(1,0,0,1,260,260)">
		<g transform="matrix(1,0,0,1,10,10)">
			<path d="M260,0C260,143.594025 143.594025,260 0,260 C-143.59404,260 -260,143.594025 -260,0 C-260,-143.59404 -143.59404,-260 0,-260 C143.594025,-260 260,-143.59404 260,0 C260,0 260,0 260,0 Z" fill="none" stroke="#22211f" stroke-width="12"/>
		</g>
		<g transform="matrix(1,0,0,1,10,10)">
			<path d="M-32.020004,-147.979996C-32.020004,-147.979996 -87.979996,-92.020004 -87.979996,-92.020004 " fill="#000000" stroke="#22211f" stroke-width="8" stroke-linecap="round"/>
		</g>
		<g transform="matrix(1,0,0,1,10,10)">
			<path d="M-104.602997,-63C-104.602997,-63 -129.397003,-13.409988 -129.397003,-13.409988 " fill="#000000" stroke="#22211f" stroke-width="8" stroke-linecap="round"/>
		</g>
		<g transform="matrix(1,0,0,1,10,10)">
			<path d="M-132.397003,15.204987C-132.397003,15.204987 -107.602997,64.795013 -107.602997,64.795013 " fill="#000000" stroke="#22211f" stroke-width="8" stroke-linecap="round"/>
		</g>
		<g transform="matrix(1,0,0,1,10,10)">
			<path d="M-87.979996,92.019989C-87.979996,92.019989 -32.020004,147.980011 -32.020004,147.980011 " fill="#000000" stroke="#22211f" stroke-width="8" stroke-linecap="round"/>
		</g>
		<g transform="matrix(1,0,0,1,10,10)">
			<path d="M-3,-160C-3,-150.61116 -10.611145,-143 -20,-143 C-29.38884,-143 -37,-150.61116 -37,-160 C-37,-169.38884 -29.38884,-177 -20,-177 C-10.611145,-177 -3,-169.38884 -3,-160 C-3,-160 -3,-160 -3,-160 Z" fill="none" stroke="#22211f" stroke-width="8"/>
		</g>
		<g transform="matrix(1,0,0,1,10,10)">
			<path d="M-83,-80C-83,-70.61116 -90.61116,-63 -100,-63 C-109.38884,-63 -117,-70.61116 -117,-80 C-117,-89.38884 -109.38884,-97 -100,-97 C-90.61116,-97 -83,-89.38884 -83,-80 C-83,-80 -83,-80 -83,-80 Z" fill="none" stroke="#22211f" stroke-width="8"/>
		</g>
		<g transform="matrix(1,0,0,1,10,10)">
			<path d="M-123,0C-123,9.388855 -130.61116,17 -140,17 C-149.38884,17 -157,9.388855 -157,0 C-157,-9.388855 -149.38884,-17 -140,-17 C-130.61116,-17 -123,-9.388855 -123,0 C-123,0 -123,0 -123,0 Z" fill="none" stroke="#22211f" stroke-width="8"/>
		</g>
		<g transform="matrix(1,0,0,1,10,10)">
			<path d="M-83,80C-83,89.388855 -90.61116,97 -100,97 C-109.38884,97 -117,89.388855 -117,80 C-117,70.611145 -109.38884,63 -100,63 C-90.61116,63 -83,70.611145 -83,80 C-83,80 -83,80 -83,80 Z" fill="none" stroke="#22211f" stroke-width="8"/>
		</g>
		<g transform="matrix(1,0,0,1,10,10)">
			<path d="M-3,160C-3,169.388855 -10.611145,177 -20,177 C-29.38884,177 -37,169.388855 -37,160 C-37,150.611145 -29.38884,143 -20,143 C-10.611145,143 -3,150.611145 -3,160 C-3,160 -3,160 -3,160 Z" fill="none" stroke="#22211f" stroke-width="8"/>
		</g>
		<g transform="matrix(1,0,0,1,10,10)">
			<path d="M95.209991,-152.400002C95.209991,-152.400002 144.790009,-127.600006 144.790009,-127.600006 " fill="#000000" stroke="#22211f" stroke-width="8" stroke-linecap="round"/>
		</g>
		<g transform="matrix(1,0,0,1,10,10)">
			<path d="M160,-103C160,-103 160,-57 160,-57 " fill="#000000" stroke="#22211f" stroke-width="8" stroke-linecap="round"/>
		</g>
		<g transform="matrix(1,0,0,1,10,10)">
			<path d="M147.980011,-27.979996C147.980011,-27.979996 92.019989,27.980011 92.019989,27.980011 " fill="#000000" stroke="#22211f" stroke-width="8" stroke-linecap="round"/>
		</g>
		<g transform="matrix(1,0,0,1,10,10)">
			<path d="M80,57C80,57 80,143 80,143 " fill="#000000" stroke="#22211f" stroke-width="8" stroke-linecap="round"/>
		</g>
		<g transform="matrix(1,0,0,1,10,10)">
			<path d="M97,-160C97,-150.61116 89.388855,-143 80,-143 C70.611145,-143 63,-150.61116 63,-160 C63,-169.38884 70.611145,-177 80,-177 C89.388855,-177 97,-169.38884 97,-160 C97,-160 97,-160 97,-160 Z" fill="none" stroke="#22211f" stroke-width="8"/>
		</g>
		<g transform="matrix(1,0,0,1,10,10)">
			<path d="M177,-120C177,-110.61116 169.388855,-103 160,-103 C150.611145,-103 143,-110.61116 143,-120 C143,-129.38884 150.611145,-137 160,-137 C169.388855,-137 177,-129.38884 177,-120 C177,-120 177,-120 177,-120 Z" fill="none" stroke="#22211f" stroke-width="8"/>
		</g>
		<g transform="matrix(1,0,0,1,10,10)">
			<path d="M177,-40C177,-30.61116 169.388855,-23 160,-23 C150.611145,-23 143,-30.61116 143,-40 C143,-49.38884 150.611145,-57 160,-57 C169.388855,-57 177,-49.38884 177,-40 C177,-40 177,-40 177,-40 Z" fill="none" stroke="#22211f" stroke-width="8"/>
		</g>
		<g transform="matrix(1,0,0,1,10,10)">
			<path d="M97,40C97,49.388855 89.388855,57 80,57 C70.611145,57 63,49.388855 63,40 C63,30.611145 70.611145,23 80,23 C89.388855,23 97,30.611145 97,40 C97,40 97,40 97,40 Z" fill="none" stroke="#22211f" stroke-width="8"/>
		</g>
		<g transform="matrix(1,0,0,1,10,10)">
			<path d="M97,160C97,169.388855 89.388855,177 80,177 C70.611145,177 63,169.388855 63,160 C63,150.611145 70.611145,143 80,143 C89.388855,143 97,150.611145 97,160 C97,160 97,160 97,160 Z" fill="none" stroke="#22211f" stroke-width="8"/>
		</g>
		<g transform="matrix(1,0,0,1,10,10)">
			<path d="M-130,-150C-130,-150 -140,-140 -140,-140 C-140,-140 -130,-130 -130,-130 C-130,-130 -120,-140 -120,-140 C-120,-140 -130,-150 -130,-150 Z" fill="#22211f"/>
		</g>
		<g transform="matrix(1,0,0,1,10,10)">
			<path d="M150,86C150,86 136,100 136,100 C136,100 150,114 150,114 C150,114 164,100 164,100 C164,100 150,86 150,86 Z" fill="#22211f"/>
		</g>
		<g transform="matrix(1,0,0,1,10,10)">
			<path d="M-73.979996,192.389984C-73.979996,200.121979 -80.248001,206.389984 -87.979996,206.389984 C-95.71199,206.389984 -101.979996,200.121979 -101.979996,192.389984 C-101.979996,184.65799 -95.71199,178.389984 -87.979996,178.389984 C-80.248001,178.389984 -73.979996,184.65799 -73.979996,192.389984 C-73.979996,192.389984 -73.979996,192.389984 -73.979996,192.389984 Z" transform="matrix(1,0,0,1,0,0)" fill="none" stroke="#22211f" stroke-width="8"/>
		</g>
		<g transform="matrix(1,0,0,1,10,10)">
			<path d="M200,-20C200,-20 210,-20 210,-20 C210,-20 210,-10 210,-10 C210,-10 200,-10 200,-10 C200,-10 200,-20 200,-20 Z" fill="#22211f"/>
		</g>
		<g transform="matrix(1,0,0,1,10,10)">
			<path d="M188,-8C188,-8 198,-8 198,-8 C198,-8 198,2 198,2 C198,2 188,2 188,2 C188,2 188,-8 188,-8 Z" fill="#22211f"/>
		</g>
		<g transform="matrix(1,0,0,1,10,10)">
			<path d="M212,-8C212,-8 222,-8 222,-8 C222,-8 222,2 222,2 C222,2 212,2 212,2 C212,2 212,-8 212,-8 Z" fill="#22211f"/>
		</g>
		<g transform="matrix(1,0,0,1,10,10)">
			<path d="M200,4C200,4 210,4 210,4 C210,4 210,14 210,14 C210,14 200,14 200,14 C200,14 200,4 200,4 Z" fill="#22211f"/>
		</g>
		<g transform="matrix(1,0,0,1,10,10)">
			<path d="M-170,108C-170,108 -160,108 -160,108 C-160,108 -160,118 -160,118 C-160,118 -170,118 -170,118 C-170,118 -170,108 -170,108 Z" fill="#22211f"/>
		</g>
		<g transform="matrix(1,0,0,1,10,10)">
			<path d="M-182,120C-182,120 -172,120 -172,120 C-172,120 -172,130 -172,130 C-172,130 -182,130 -182,130 C-182,130 -182,120 -182,120 Z" fill="#22211f"/>
		</g>
		<g transform="matrix(1,0,0,1,10,10)">
			<path d="M-158,120C-158,120 -148,120 -148,120 C-148,120 -148,130 -148,130 C-148,130 -158,130 -158,130 C-158,130 -158,120 -158,120 Z" fill="#22211f"/>
		</g>
		<g transform="matrix(1,0,0,1,10,10)">
			<path d="M-170,132C-170,132 -160,132 -160,132 C-160,132 -160,142 -160,142 C-160,142 -170,142 -170,142 C-170,142 -170,132 -170,132 Z" fill="#22211f"/>
		</g>
		<g transform="matrix(1,0,0,1,10,10)">
			<path d="M-38,-50C-38,-43.372589 -43.372589,-38 -50,-38 C-56.627411,-38 -62,-43.372589 -62,-50 C-62,-56.627411 -56.627411,-62 -50,-62 C-43.372589,-62 -38,-56.627411 -38,-50 C-38,-50 -38,-50 -38,-50 Z" fill="none" stroke="#22211f" stroke-width="8"/>
		</g>
		<g transform="matrix(1,0,0,1,10,10)">
			<path d="M-59,71C-59,71 -67,79 -67,79 C-67,79 -59,87 -59,87 C-59,87 -51,79 -51,79 C-51,79 -59,71 -59,71 Z" fill="#22211f"/>
		</g>
		<g transform="matrix(1,0,0,1,10,10)">
			<path d="M135,-81C135,-81 127,-73 127,-73 C127,-73 135,-65 135,-65 C135,-65 143,-73 143,-73 C143,-73 135,-81 135,-81 Z" fill="#22211f"/>
		</g>
	</g>
</g></g></svg>